<svg xmlns="http://www.w3.org/2000/svg" width="957.808" height="294.848" viewBox="0 0 957.808 294.848" role="img" aria-labelledby="title desc" shape-rendering="geometricPrecision">
  <title id="title">Ejupi Labs — Primary Carbon</title>
  <desc id="desc">Ejupi Labs primary wordmark with a square Node after Labs.</desc>
  
  
  <g id="wordmark" fill="#0E1111">
    <g id="ejupi"><path  d="M155.168 193.008L64 193.008L64 66.288L153.232 66.288L153.232 84.416L86.880 84.416L86.880 118.912L149.008 118.912L149.008 136.688L86.880 136.688L86.880 174.880L155.168 174.880L155.168 193.008Z M166.608 230.848L166.608 230.848Q163.440 230.848 160.976 230.496Q158.512 230.144 156.224 229.440L156.224 229.440L156.224 212.192Q159.040 213.248 163.264 213.248L163.264 213.248Q173.648 213.248 173.648 203.392L173.648 203.392L173.648 103.248L195.824 103.248L195.824 203.920Q195.824 216.592 188.696 223.720Q181.568 230.848 166.608 230.848ZM196.704 88.464L172.592 88.464L172.592 64L196.704 64L196.704 88.464Z M245.984 194.768L245.984 194.768Q236.656 194.768 229.880 190.808Q223.104 186.848 219.496 179.984Q215.888 173.120 215.888 164.496L215.888 164.496L215.888 103.248L238.064 103.248L238.064 159.920Q238.064 168.192 242.200 172.416Q246.336 176.640 253.904 176.640L253.904 176.640Q264.112 176.640 270.712 169.688Q277.312 162.736 277.312 151.648L277.312 151.648L277.312 103.248L299.664 103.248L299.664 193.008L278.016 193.008L278.016 176.464Q273.264 184.912 264.992 189.840Q256.720 194.768 245.984 194.768Z M374.464 194.768L374.464 194.768Q363.728 194.768 356.248 190.368Q348.768 185.968 345.424 178.224L345.424 178.224L345.424 229.088L323.248 229.088L323.248 103.248L344.896 103.248L344.896 118.208Q348.416 110.464 356.688 105.976Q364.960 101.488 375.872 101.488L375.872 101.488Q387.840 101.488 396.728 107.208Q405.616 112.928 410.544 123.312Q415.472 133.696 415.472 147.776L415.472 147.776Q415.472 162.032 410.368 172.592Q405.264 183.152 396.024 188.960Q386.784 194.768 374.464 194.768ZM368.832 176.464L368.832 176.464Q379.392 176.464 385.816 168.984Q392.240 161.504 392.240 147.952L392.240 147.952Q392.240 134.400 385.816 127.008Q379.392 119.616 368.656 119.616L368.656 119.616Q357.920 119.616 351.496 127.184Q345.072 134.752 345.072 148.128L345.072 148.128Q345.072 161.680 351.584 169.072Q358.096 176.464 368.832 176.464Z M454.192 193.008L432.016 193.008L432.016 103.248L454.192 103.248L454.192 193.008ZM455.072 88.464L430.960 88.464L430.960 64L455.072 64L455.072 88.464Z"/></g>
    <g id="labs"><path  d="M564.624 193.008L485.072 193.008L485.072 66.288L499.504 66.288L499.504 180.336L564.624 180.336L564.624 193.008Z M607.392 194.768L607.392 194.768Q593.488 194.768 585.304 187.992Q577.120 181.216 577.120 169.424L577.120 169.424Q577.120 157.632 585.216 151.120Q593.312 144.608 608.800 141.968L608.800 141.968L636.080 137.392L636.080 133.344Q636.080 123.136 631.416 118.296Q626.752 113.456 616.368 113.456L616.368 113.456Q606.160 113.456 600.088 117.592Q594.016 121.728 593.312 129.296L593.312 129.296L579.760 129.296Q580.640 116.272 590.672 108.880Q600.704 101.488 616.896 101.488L616.896 101.488Q649.808 101.488 649.808 133.168L649.808 133.168L649.808 176.288Q649.808 180.160 650.336 184.296Q650.864 188.432 651.744 193.008L651.744 193.008L638.192 193.008Q637.136 188.080 636.960 179.280L636.960 179.280Q633.440 186.672 625.696 190.720Q617.952 194.768 607.392 194.768ZM590.848 168.896L590.848 168.896Q590.848 182.800 609.328 182.800L609.328 182.800Q621.120 182.800 628.600 177.432Q636.080 172.064 636.080 163.440L636.080 163.440L636.080 149.008L610.912 152.880Q601.056 154.464 595.952 158.160Q590.848 161.856 590.848 168.896Z M721.264 194.592L721.264 194.592Q710.176 194.592 702.168 189.840Q694.160 185.088 690.112 176.288L690.112 176.288L690.112 193.008L676.912 193.008L676.912 66.288L690.992 66.288L690.992 118.912Q695.216 110.816 703.488 106.152Q711.760 101.488 722.496 101.488L722.496 101.488Q734.464 101.488 743.352 107.296Q752.240 113.104 757.168 123.488Q762.096 133.872 762.096 147.776L762.096 147.776Q762.096 161.856 756.992 172.416Q751.888 182.976 742.736 188.784Q733.584 194.592 721.264 194.592ZM719.152 182.272L719.152 182.272Q732.528 182.272 740.096 173.032Q747.664 163.792 747.664 147.776L747.664 147.776Q747.664 131.936 740.096 122.872Q732.528 113.808 719.152 113.808L719.152 113.808Q705.776 113.808 698.032 123.048Q690.288 132.288 690.288 148.304L690.288 148.304Q690.288 163.968 698.032 173.120Q705.776 182.272 719.152 182.272Z M814.016 194.768L814.016 194.768Q797.472 194.768 787.616 187.112Q777.760 179.456 776.352 165.376L776.352 165.376L789.904 165.376Q791.136 174.000 797.472 178.576Q803.808 183.152 814.368 183.152L814.368 183.152Q823.696 183.152 828.976 179.632Q834.256 176.112 834.256 169.600L834.256 169.600Q834.256 165.024 831.264 161.592Q828.272 158.160 819.296 155.872L819.296 155.872L804.864 152.176Q792.544 149.008 786.384 142.408Q780.224 135.808 780.224 126.656L780.224 126.656Q780.224 115.040 788.848 108.264Q797.472 101.488 812.256 101.488L812.256 101.488Q826.864 101.488 836.016 108.528Q845.168 115.568 846.400 128.064L846.400 128.064L832.848 128.064Q831.616 120.848 826.160 116.976Q820.704 113.104 811.728 113.104L811.728 113.104Q803.104 113.104 798.352 116.360Q793.600 119.616 793.600 125.600L793.600 125.600Q793.600 130.176 797.032 133.520Q800.464 136.864 808.560 139.152L808.560 139.152L822.640 143.024Q847.808 149.888 847.808 169.776L847.808 169.776Q847.808 181.568 838.832 188.168Q829.856 194.768 814.016 194.768Z"/></g>
  </g>
  <rect id="node" x="869.808" y="169.008" width="24" height="24" fill="#B44A2A"/>
</svg>
